<svg width="160" height="160" viewBox="0 0 160 160" fill="none" xmlns="http://www.w3.org/2000/svg">
<g clip-path="url(#clip0_2885_241536)">
<mask id="mask0_2885_241536" style="mask-type:luminance" maskUnits="userSpaceOnUse" x="0" y="0" width="160" height="160">
<path d="M160 0H0V160H160V0Z" fill="white"/>
</mask>
<g mask="url(#mask0_2885_241536)">
<path d="M75.8452 128.022C115.39 132.024 135.77 122.296 136.987 98.8387C138.811 63.6521 108.077 67.4533 99.1264 58.1797C90.1754 48.9062 100.203 62.085 82.9645 42.8681C71.4719 30.0566 56.1582 29.9908 37.0235 42.6712C21.5893 55.233 19.92 71.707 32.0152 92.0928C44.1104 112.478 58.7202 124.455 75.8452 128.022Z" fill="#F8FAFC"/>
<path d="M27.7549 105.983L26.3606 107.377L24.0785 105.094L21.7917 107.381L20.3975 105.986L22.6831 103.7L20.401 101.418L21.7953 100.022L24.0774 102.305L26.3641 100.02L27.7584 101.414L25.4728 103.701L27.7549 105.983Z" fill="#94A3B8"/>
<path d="M128.805 61.3374C126.874 61.3374 125.311 59.7713 125.311 57.8408C125.311 55.9103 126.874 54.3442 128.805 54.3442C130.736 54.3442 132.3 55.9103 132.3 57.8408C132.3 59.7713 130.736 61.3374 128.805 61.3374ZM128.805 59.3445C129.631 59.3445 130.303 58.6722 130.303 57.8408C130.303 57.0094 129.631 56.3371 128.805 56.3371C127.978 56.3371 127.307 57.0094 127.307 57.8408C127.307 58.6722 127.978 59.3445 128.805 59.3445Z" fill="#94A3B8"/>
<mask id="mask1_2885_241536" style="mask-type:luminance" maskUnits="userSpaceOnUse" x="56" y="40" width="64" height="18">
<path d="M119.217 40.0242H56.9829L56.947 57.8196H119.181L119.217 40.0242Z" fill="white"/>
</mask>
<g mask="url(#mask1_2885_241536)">
<path d="M57.8737 40.9268C65.8488 40.9268 66.8457 45.6406 66.8457 50.3459V55.4794C66.8457 56.2928 67.4643 56.9538 68.2254 56.9538L115.216 56.545C115.978 56.545 116.596 55.8846 116.596 55.0711V49.5369C116.596 44.4887 112.767 40.3955 108.044 40.3955C107.724 40.3955 57.5398 40.9268 57.8737 40.9268Z" fill="#94A3B8"/>
<path d="M57.8726 41.7898C57.8726 42.5593 58.4981 43.1839 59.2682 43.1839C108.054 43.1839 108.063 43.1834 108.072 43.1839C111.269 43.1894 113.86 45.8022 113.865 49.0276V55.641H115.244C116.005 55.641 116.623 55.0179 116.623 54.2498V49.0276C116.644 44.258 112.828 40.3752 108.1 40.3547H108.045H107.53C107.403 40.3622 107.28 40.3826 107.155 40.3961H59.2662C58.4966 40.3961 57.8726 41.0202 57.8726 41.7898Z" fill="#94A3B8"/>
</g>
<mask id="mask2_2885_241536" style="mask-type:luminance" maskUnits="userSpaceOnUse" x="37" y="39" width="78" height="84">
<path d="M114.443 39.1277H37.8816V122.492H114.443V39.1277Z" fill="white"/>
</mask>
<g mask="url(#mask2_2885_241536)">
<path d="M108.044 43.0121V40.3953H58.3557C51.8451 40.4052 46.5695 45.7251 46.5596 52.2896V120.59C46.5596 121.357 47.1776 121.98 47.9388 121.98H90.4823C96.9845 121.96 102.247 116.642 102.252 110.086V49.0173V48.952C102.292 45.7535 104.872 43.0211 108.044 43.0166C108.057 43.0166 108.069 43.0126 108.081 43.0121H108.044Z" fill="#FEFEFE"/>
<path d="M58.3291 40.395C51.818 40.4055 46.542 45.7254 46.532 52.2899V92.2759L76.2401 40.3582L58.3291 40.395Z" fill="#F8FAFC"/>
<path d="M46.5593 68.4175V53.1712C46.5698 46.6062 51.8453 41.2868 58.3564 41.2764H108.044M43.0283 120.089C45.9955 120.089 46.5324 116.936 46.5324 114.944C46.5324 98.6516 46.5593 87.1346 46.5593 83.003M46.819 73.0755V74.9073" stroke="#94A3B8" stroke-width="1.79439" stroke-miterlimit="10" stroke-linecap="round"/>
<path d="M108.044 40.3538H107.529C103.019 40.6284 99.499 44.3941 99.493 48.9524V49.0825V110.051C99.4845 114.206 96.7017 117.833 92.7171 118.882C92.2815 118.996 91.8354 119.051 91.3898 119.056V119.057H91.3554H91.32H39.7422C41.8127 120.885 44.5213 121.996 47.4885 121.999H47.5069H62.378H90.4831C90.7862 121.999 91.2547 121.999 91.5588 121.952C92.0946 121.903 92.6259 121.813 93.1488 121.684C98.4901 120.429 102.273 115.63 102.28 110.098V48.9987V48.9339C102.319 45.9358 104.597 43.4541 107.556 43.1829C107.72 43.1739 108.033 43.1749 108.195 43.1829L108.044 40.3538Z" fill="#94A3B8"/>
</g>
<mask id="mask3_2885_241536" style="mask-type:luminance" maskUnits="userSpaceOnUse" x="34" y="106" width="58" height="17">
<path d="M91.4324 106.564H34.8911V122.243H91.4324V106.564Z" fill="white"/>
</mask>
<g mask="url(#mask3_2885_241536)">
<path d="M108.043 40.3538H107.529C103.019 40.6289 99.4996 44.3941 99.4931 48.9524V49.0825V110.051C99.4847 114.206 96.7019 117.833 92.7173 118.882C91.8126 119.118 90.8626 119.118 89.9584 118.882C85.9614 117.818 83.1796 114.166 83.1906 109.996V108.141C83.1961 107.373 82.583 106.745 81.8214 106.74H73.0792H66.0507H55.215H43.87H37.0892C36.328 106.74 35.71 107.364 35.71 108.132V110.098C35.704 116.665 40.9785 121.993 47.4887 121.999H47.5061H62.3771H90.4818C90.7854 121.999 91.2544 121.999 91.5579 121.952C92.0943 121.903 92.6261 121.814 93.149 121.684C98.4903 120.43 102.272 115.631 102.279 110.098V48.9992V48.9339C102.318 45.9363 104.597 43.4536 107.556 43.1834C107.728 43.1739 107.899 43.1739 108.071 43.1834C111.268 43.1884 113.859 45.8017 113.864 49.0267V55.6405H115.243C116.005 55.6405 116.623 55.0174 116.623 54.2493V49.0267C116.643 44.2571 112.827 40.3747 108.099 40.3538H108.043Z" fill="#94A3B8"/>
</g>
<mask id="mask4_2885_241536" style="mask-type:luminance" maskUnits="userSpaceOnUse" x="0" y="0" width="160" height="160">
<path d="M0 0H160V160H0V0Z" fill="white"/>
</mask>
<g mask="url(#mask4_2885_241536)">
<mask id="mask5_2885_241536" style="mask-type:luminance" maskUnits="userSpaceOnUse" x="47" y="42" width="56" height="78">
<path d="M102.804 42.2429C99.5639 42.2429 57.6948 42.2429 57.6948 42.2429L50.3428 47.4766L47.6013 63.3021V106.791C47.6013 106.791 80.997 106.791 81.9938 106.791C82.9907 106.791 83.1153 107.663 83.1153 108.287C83.1153 108.91 83.7384 119.252 91.0904 119.252C98.4424 119.252 99.4393 112.523 99.4393 108.785C99.4393 105.047 99.4393 49.3457 99.4393 48.0996C99.4393 46.8535 100.935 43.1152 102.804 42.2429Z" fill="white"/>
</mask>
<g mask="url(#mask5_2885_241536)">
<path d="M110.408 98.7661C117.73 92.0572 118.237 80.6956 111.542 73.3892C104.846 66.0824 93.4842 65.5979 86.1627 72.3068C78.8412 79.0158 78.3328 90.3777 85.0283 97.6845C91.7234 104.991 103.087 105.475 110.408 98.7661Z" fill="#94A3B8"/>
<path d="M110.408 98.7661C117.73 92.0572 118.237 80.6956 111.542 73.3892C104.846 66.0824 93.4842 65.5979 86.1627 72.3068C78.8412 79.0158 78.3328 90.3777 85.0283 97.6845C91.7234 104.991 103.087 105.475 110.408 98.7661Z" stroke="#94A3B8" stroke-width="1.79439" stroke-miterlimit="10"/>
</g>
</g>
<path d="M57.6724 94.6089H71.1577" stroke="#94A3B8" stroke-width="1.79439" stroke-miterlimit="10" stroke-linecap="round"/>
<path d="M57.6724 82.0481H71.1577" stroke="#94A3B8" stroke-width="1.79439" stroke-miterlimit="10" stroke-linecap="round"/>
<path d="M57.6719 69.4871H88.2389" stroke="#94A3B8" stroke-width="1.79439" stroke-miterlimit="10" stroke-linecap="round"/>
<path d="M57.6719 56.0291H91.7708" stroke="#94A3B8" stroke-width="1.79439" stroke-miterlimit="10" stroke-linecap="round"/>
<path d="M111.318 93.2773C112.257 92.3407 113.777 92.3422 114.716 93.2793L126.573 105.117C127.509 106.051 127.51 107.567 126.575 108.503L126.571 108.507C125.632 109.443 124.112 109.442 123.173 108.505L111.316 96.6677C110.38 95.7331 110.379 94.2174 111.313 93.2818L111.318 93.2773Z" fill="#64748B"/>
<path d="M113.847 95.7259C121.169 89.0169 121.676 77.6553 114.981 70.3489C108.285 63.0421 96.9232 62.5576 89.6017 69.2666C82.2802 75.9755 81.7718 87.3374 88.4672 94.6442C95.1623 101.951 106.526 102.435 113.847 95.7259Z" fill="#FEFEFE"/>
<path d="M113.847 95.7259C121.169 89.0169 121.676 77.6553 114.981 70.3489C108.285 63.0421 96.9232 62.5576 89.6017 69.2666C82.2802 75.9755 81.7718 87.3374 88.4672 94.6442C95.1623 101.951 106.526 102.435 113.847 95.7259Z" stroke="#64748B" stroke-width="1.79439" stroke-miterlimit="10"/>
<path d="M108.355 86.5293L106.655 88.229L102.277 83.8516L97.9328 88.1956L96.2226 86.4859L100.567 82.141L96.1892 77.7632L97.8899 76.063L102.267 80.4408L106.612 76.0964L108.322 77.8065L103.977 82.1515L108.355 86.5293Z" fill="#64748B"/>
</g>
</g>
<defs>
<clipPath id="clip0_2885_241536">
<rect width="160" height="160" fill="white"/>
</clipPath>
</defs>
</svg>
